PathFileType	4	(X/Y/Z)	C:\Users\Basilio\Documents\Thesis Gigler\squatting_fais\c3dfiles\075\SJ_pre3\markers_experimental.trc
DataRate	CameraRate	NumFrames	NumMarkers	Units	OrigDataRate	OrigDataStartFrame	OrigNumFrames
200.000000	200.000000	4	61	mm	200.000000	1040	1664
Frame#	Time	FHD			LBHD			RBHD			C7			T10			CLAV			LSHO			LUUPA			LMUPA			LDUPA			LLEP			LMEP			LRAD			LUL			LRFIN			RSHO			RUPA1			RMUPA			RDUPA			RLEP			RMEP			RRAD			RUL			RUFIN			LASI			RASI			USACR			LSACR			RSACR			LTHI1			LTHI2			LTHI3			LTHI4			LLFC			LMFC			LTIB1			LTIB2			LTIB3			LTIB4			LLMAL			LMMAL			LHEE			LMT1			LMT2			LMT5			RTHI			RTHI2			RTHI3			RTHI4			RLFC			RMFC			RTIB1			RTIB2			RTIB3			RTIB4			RLMAL			RMMAL			RHEE			RMT1			RMT2			RMT5			
		X1	Y1	Z1	X2	Y2	Z2	X3	Y3	Z3	X4	Y4	Z4	X5	Y5	Z5	X6	Y6	Z6	X7	Y7	Z7	X8	Y8	Z8	X9	Y9	Z9	X10	Y10	Z10	X11	Y11	Z11	X12	Y12	Z12	X13	Y13	Z13	X14	Y14	Z14	X15	Y15	Z15	X16	Y16	Z16	X17	Y17	Z17	X18	Y18	Z18	X19	Y19	Z19	X20	Y20	Z20	X21	Y21	Z21	X22	Y22	Z22	X23	Y23	Z23	X24	Y24	Z24	X25	Y25	Z25	X26	Y26	Z26	X27	Y27	Z27	X28	Y28	Z28	X29	Y29	Z29	X30	Y30	Z30	X31	Y31	Z31	X32	Y32	Z32	X33	Y33	Z33	X34	Y34	Z34	X35	Y35	Z35	X36	Y36	Z36	X37	Y37	Z37	X38	Y38	Z38	X39	Y39	Z39	X40	Y40	Z40	X41	Y41	Z41	X42	Y42	Z42	X43	Y43	Z43	X44	Y44	Z44	X45	Y45	Z45	X46	Y46	Z46	X47	Y47	Z47	X48	Y48	Z48	X49	Y49	Z49	X50	Y50	Z50	X51	Y51	Z51	X52	Y52	Z52	X53	Y53	Z53	X54	Y54	Z54	X55	Y55	Z55	X56	Y56	Z56	X57	Y57	Z57	X58	Y58	Z58	X59	Y59	Z59	X60	Y60	Z60	X61	Y61	Z61	

1041	5.2	-135.3656005859375	1404.175415039063	-913.0571289062502	-269.6379394531251	1281.167236328125	-997.4305419921877	-242.9070892333985	1310.622314453125	-840.890319824219	-306.2651977539063	1190.966796875	-944.8292236328127	-439.0805664062501	897.661071777344	-945.417907714844	-180.1770935058594	1090.982788085938	-926.891540527344	-180.2588653564453	1130.652587890625	-1084.554931640625	-238.4073028564454	1002.767700195313	-1261.13232421875	-224.2011718750001	956.234313964844	-1245.590698242188	-249.5052490234376	945.1140136718752	-1300.091918945313	-274.0637207031251	860.1013793945315	-1321.673217773438	-358.4439392089844	885.435974121094	-1299.222900390625	-372.8126525878907	705.1645507812501	-1151.112060546875	-330.7822570800782	651.5982666015626	-1186.571655273438	-335.9948120117188	694.6201782226564	-1099.30126953125	-215.9522247314454	1142.411865234375	-774.4490356445315	-314.0496215820313	1027.452880859375	-611.7275390625001	-300.5210876464844	978.8301391601565	-615.1896972656251	-341.7396850585938	975.4808349609377	-571.4996337890626	-367.2529296875001	909.452087402344	-546.4160156250001	-447.4503784179689	911.8172607421877	-576.0765380859376	-364.5552062988282	681.4102172851564	-672.4484252929689	-405.1301879882814	719.6096191406251	-725.3925781250001	-350.3788452148438	715.1098022460939	-762.5399169921876	-337.0621032714844	686.2579956054689	-1051.2109375	-346.6684570312501	704.7246093750001	-813.054626464844	-477.8179626464845	802.8330688476565	-945.9629516601565	-491.4101867675782	773.9963989257815	-973.371032714844	-496.3820800781251	778.7521972656252	-915.2800903320315	-313.8443298339844	541.5255737304689	-1150.030029296875	-237.6085510253907	507.8147583007814	-1160.88330078125	-206.5564727783204	538.8794555664064	-1137.042358398438	-220.9414367675782	450.7780151367189	-1168.174682617188	-163.7228240966797	372.7034606933594	-1164.930053710938	-123.739730834961	357.1466369628907	-1040.342041015625	-159.717758178711	244.4051055908204	-1119.8583984375	-235.5782623291016	243.6562500000001	-1168.747924804688	-207.7769165039063	218.1561126708985	-1144.968505859375	-260.3037109375001	165.00048828125	-1111.928955078125	-413.2622070312501	96.77188110351565	-1121.150390625	-369.8634033203126	97.16113281250003	-1040.151000976563	-472.9223022460939	54.51316070556642	-1067.1923828125	-259.9113769531251	49.86392974853517	-1089.026977539063	-269.0508728027344	53.4922218322754	-1137.093505859375	-317.0017700195313	41.54331970214844	-1183.1220703125	-369.2804870605469	580.2880249023439	-711.7377929687501	-304.8973083496094	571.4769897460939	-701.9871826171876	-285.3128967285157	596.0815429687501	-716.2387084960939	-267.1328430175782	498.5774841308595	-685.6426391601564	-180.744613647461	391.2703857421876	-690.4460449218751	-135.2218933105469	375.7072753906251	-802.799499511719	-184.8947906494141	247.4950561523438	-745.7485351562501	-280.2000122070313	216.7243347167969	-699.5905151367189	-249.8160095214844	192.424789428711	-726.4505615234376	-275.7731933593751	158.8393859863282	-768.0529785156252	-407.4990234375001	94.99439239501955	-746.5101318359376	-350.7610168457032	98.92662048339847	-819.4627075195315	-451.4867248535157	52.90143203735353	-811.7248535156252	-251.3059692382813	54.99152755737306	-740.2990722656251	-267.8048400878907	56.01399612426759	-702.2443237304689	-320.3660278320313	36.46755599975587	-663.8239135742189	
1042	5.205	-134.8131866455078	1402.611083984375	-914.5830078125002	-268.7259521484376	1279.072387695313	-998.1235351562502	-241.8101654052735	1309.152954101563	-841.7193603515627	-305.5375366210938	1189.43798828125	-945.1494750976565	-439.2937927246095	896.9716796875002	-945.2722167968752	-179.080551147461	1088.9658203125	-926.8338012695315	-179.9220886230469	1128.476806640625	-1084.932739257813	-238.4847564697266	1000.578125	-1261.311279296875	-224.6698608398438	954.026794433594	-1245.88916015625	-249.700180053711	942.8342895507815	-1300.204711914063	-274.4512023925782	858.279968261719	-1321.865112304688	-359.0260314941407	883.8601074218752	-1299.328979492188	-373.7318725585938	704.0457153320314	-1151.042724609375	-332.3019714355469	649.9891967773439	-1186.310546875	-337.7858276367188	693.9018554687501	-1099.651977539063	-215.1452331542969	1140.714111328125	-774.9367675781252	-313.9062194824219	1026.177856445313	-612.0917358398439	-300.5486450195313	977.5418090820315	-615.5789794921876	-341.8035278320313	974.3366699218752	-571.8930053710939	-367.4446105957032	908.3870849609377	-546.8464355468751	-447.4534301757814	910.9809570312502	-576.6391601562501	-365.0271606445313	680.3171997070314	-673.1884765625001	-405.770965576172	718.6540527343751	-725.7775878906251	-350.9430541992188	714.2974853515626	-763.0055541992189	-337.6991882324219	685.4115600585939	-1051.4326171875	-347.2446899414063	703.8317260742189	-813.3883056640627	-478.484588623047	802.5802001953127	-945.8411865234377	-492.2578125000001	773.8166503906252	-973.046813964844	-496.9504394531251	778.412048339844	-915.0957641601565	-315.7316284179688	541.4690551757814	-1150.420776367188	-238.6255493164063	507.5794677734376	-1161.111083984375	-207.6213989257813	538.7783203125001	-1137.261474609375	-222.764144897461	450.7181396484376	-1168.658081054688	-164.808578491211	373.0996093750001	-1165.097045898438	-124.9864044189453	357.7649841308594	-1040.677978515625	-159.8764190673828	244.946273803711	-1120.608520507813	-236.0448150634766	244.0714569091797	-1168.986450195313	-208.3529663085938	218.3369598388672	-1145.084594726563	-260.6932373046876	165.2493133544922	-1112.181640625	-413.3763427734376	96.68801116943362	-1121.225341796875	-370.0479431152344	97.1549987792969	-1040.205932617188	-472.913055419922	54.39544677734376	-1067.170166015625	-259.9634704589844	49.95439529418947	-1089.024169921875	-269.0743408203126	53.51833343505861	-1137.0986328125	-317.0235595703126	41.47959518432618	-1183.073974609375	-370.3385009765626	579.8774414062501	-712.1112670898439	-305.8508911132813	571.2773437500001	-702.5214233398439	-286.3139038085938	595.9135742187501	-717.0119018554689	-267.8349304199219	498.5491027832032	-686.3493041992189	-181.2275695800782	391.6459350585939	-691.5247192382814	-135.2779693603516	376.7058715820313	-803.913513183594	-185.0853271484375	247.7702941894532	-746.5255737304689	-280.2283935546876	217.1084289550782	-700.1893920898439	-249.6332702636719	192.6548309326172	-726.7108764648439	-275.7275695800782	158.9445343017578	-768.5002441406252	-407.558074951172	94.98310852050783	-746.6416015625001	-351.7506103515626	99.13025665283206	-820.1096191406252	-451.4957275390626	52.79356002807619	-811.7676391601565	-251.3600616455079	55.02217864990236	-740.4330444335939	-267.8474426269532	56.06440353393556	-702.3953247070314	-320.3529052734376	36.58539581298829	-663.8623046875001	
1043	5.21	-133.9221496582032	1401.130493164063	-915.9089355468752	-267.8794555664063	1277.307250976563	-998.849548339844	-240.9824218750001	1308.187622070313	-842.1960449218752	-304.5275268554688	1188.281127929688	-945.5789794921877	-439.648406982422	896.598815917969	-945.2965087890627	-179.1446838378907	1087.4326171875	-927.5942382812502	-179.5477447509766	1126.75341796875	-1085.44775390625	-239.0554199218751	999.0444946289065	-1261.840698242188	-225.1510162353516	952.188903808594	-1246.069091796875	-250.4244995117188	941.187683105469	-1300.56298828125	-275.7408752441407	856.6151123046877	-1322.039794921875	-360.1495971679688	882.393005371094	-1299.487548828125	-375.3619079589844	702.9326171875001	-1151.046264648438	-333.6542053222657	648.9315795898439	-1186.288818359375	-338.6622619628907	693.3261718750001	-1099.6962890625	-214.0788269042969	1139.31982421875	-775.3017578125002	-313.6870422363282	1025.152709960938	-612.5164184570314	-300.4584960937501	976.4277954101565	-616.0012817382814	-341.6814880371094	973.5000000000002	-572.2584228515626	-367.5896911621094	907.4616699218752	-546.7844848632814	-447.5560607910157	910.3262939453127	-577.0811157226564	-365.4915466308594	679.6702270507814	-673.6484375000001	-406.6700744628907	717.9931030273439	-726.2015991210939	-351.5744934082032	713.7041625976564	-763.4220581054689	-340.3823547363282	684.6035766601564	-1050.72265625	-347.9787292480469	703.0887451171876	-813.6201171875002	-478.6954345703126	802.259704589844	-945.6024169921877	-495.7204589843751	774.2326660156252	-972.293640136719	-498.3226623535157	777.855163574219	-914.8616943359377	-315.7670898437501	540.7465820312501	-1150.2529296875	-239.6835632324219	507.4837646484376	-1161.323852539063	-208.7693634033204	538.7356567382814	-1137.63330078125	-222.7085266113282	450.4571228027345	-1168.455444335938	-166.0840454101563	373.5261230468751	-1165.245483398438	-126.6195907592774	358.0653076171876	-1040.8994140625	-160.5410614013672	245.3509979248047	-1120.282348632813	-236.6775054931641	244.6931915283204	-1169.224853515625	-208.6235504150391	219.0829620361329	-1145.586791992188	-260.2278137207032	165.4061126708985	-1111.561279296875	-413.4529113769532	96.52038574218753	-1121.293090820313	-370.2287902832032	97.13179779052737	-1040.27880859375	-472.997528076172	54.28678131103517	-1067.245971679688	-259.9634094238282	49.94675827026369	-1089.05615234375	-269.0481262207032	53.55330657958986	-1137.119995117188	-317.0530395507813	41.4579086303711	-1183.128784179688	-371.3205566406251	579.8592529296876	-712.5100097656251	-306.7713623046876	571.4468383789064	-703.3049316406251	-287.2984313964844	596.1577148437501	-717.7432250976564	-268.3210144042969	498.9763183593751	-686.8812255859376	-181.9036712646485	392.0431213378907	-692.8464355468751	-135.9532165527344	377.1374511718751	-805.2102661132815	-185.3220367431641	248.1684112548829	-747.2670898437501	-280.3516845703126	217.3318176269532	-700.7976074218751	-249.6158905029297	192.6682281494141	-727.2520141601564	-275.9894714355469	159.0950317382813	-768.984558105469	-407.5497131347657	95.00987243652345	-746.7484741210939	-351.7204284667969	99.03663635253909	-820.2181396484377	-451.5967712402345	52.69211959838869	-811.8428955078127	-251.3891296386719	55.02786254882814	-740.5494995117189	-267.8507080078126	56.13172912597658	-702.5312500000001	-320.2934875488282	36.63586044311524	-663.9603881835939	
1044	5.215	-133.205078125	1400.052856445313	-917.3041992187502	-267.0640563964844	1275.538818359375	-999.6829833984377	-239.8614349365235	1307.250610351563	-842.986999511719	-303.8161621093751	1187.27392578125	-945.7942504882815	-440.0529174804689	896.4423828125002	-945.3100585937502	-178.8418579101563	1086.070556640625	-928.1701660156252	-179.1939849853516	1125.130859375	-1085.9384765625	-239.3355102539063	997.370544433594	-1261.9482421875	-225.4492950439454	950.6536254882815	-1246.1494140625	-251.3843688964844	939.7434082031252	-1300.575439453125	-276.9327087402344	855.335144042969	-1322.51025390625	-361.1476135253907	881.4467773437502	-1299.803100585938	-376.6307373046876	702.3802490234376	-1151.109252929688	-335.1699523925782	648.1299438476564	-1186.26171875	-340.8251953125001	693.1019897460939	-1100.326171875	-213.2613220214844	1137.902709960938	-775.6626586914065	-313.1730957031251	1024.252807617188	-612.8208618164064	-300.3869018554688	975.3739013671877	-616.3547973632814	-341.5342712402344	972.7485351562502	-572.5596923828126	-367.7004394531251	906.833923339844	-547.3895263671876	-447.6518554687501	909.9199829101565	-577.4921264648439	-366.3399963378907	679.0206909179689	-674.1015014648439	-407.2158813476564	717.7216796875001	-726.5058593750001	-352.3922424316407	713.3698730468751	-763.7228393554689	-341.2268066406251	684.1296997070314	-1050.905517578125	-348.5935363769532	702.8207397460939	-813.7883911132815	-479.3408203125001	802.3797607421877	-945.4381103515627	-494.7155151367189	774.1312255859377	-972.3365478515627	-498.9476623535157	778.195983886719	-914.7564086914065	-317.1335144042969	540.8056030273439	-1150.636596679688	-240.9235839843751	507.4332275390626	-1161.509643554688	-209.8501739501954	538.8162231445314	-1137.979370117188	-223.8521423339844	450.4672851562501	-1168.578735351563	-167.3475036621094	374.0393981933594	-1165.37158203125	-127.9987945556641	358.6649780273438	-1041.083618164063	-161.610824584961	246.0697021484376	-1121.487548828125	-237.2893676757813	245.1822967529297	-1169.468505859375	-209.3784637451172	219.2811584472657	-1145.460693359375	-260.6006469726563	165.6867065429688	-1111.809326171875	-413.6441040039064	96.367057800293	-1121.402221679688	-370.4400024414063	97.08652496337893	-1040.440063476563	-473.082489013672	54.05127716064455	-1067.345092773438	-260.0337829589844	50.03075790405275	-1089.008666992188	-269.1748046875001	53.53727340698244	-1137.11767578125	-317.0981140136719	41.41382598876954	-1183.20849609375	-372.2118835449219	580.1925048828126	-712.8301391601564	-307.6051025390626	571.7357177734376	-703.9963378906251	-288.3017883300782	596.2921142578126	-718.8421630859376	-269.2152709960938	499.323455810547	-687.6572265625001	-182.3323669433594	392.6766967773439	-693.8306274414064	-136.6846313476563	376.9603576660157	-806.173522949219	-185.5183410644532	248.6929931640626	-748.0156860351564	-280.5711669921876	217.7302246093751	-701.2659301757814	-249.7810058593751	193.0112915039063	-728.1209106445314	-276.0458068847657	159.2960357666016	-769.386413574219	-407.6842651367189	95.00817871093751	-746.8643188476564	-351.0107727050782	98.70562744140628	-819.9914550781252	-451.6658020019532	52.61388778686525	-811.8591308593752	-251.3712158203126	55.09384918212892	-740.6658325195314	-267.9432373046876	56.20578002929689	-702.6860351562501	-320.2618713378907	36.69120407104493	-664.0838012695314	
